<svg width="1200" height="760" viewBox="0 0 1200 760" fill="none" xmlns="http://www.w3.org/2000/svg">
  <defs>
    <linearGradient id="bg" x1="78" y1="54" x2="1122" y2="706" gradientUnits="userSpaceOnUse">
      <stop stop-color="#172A46"/>
      <stop offset="1" stop-color="#0B1626"/>
    </linearGradient>
    <linearGradient id="card" x1="352" y1="196" x2="1084" y2="650" gradientUnits="userSpaceOnUse">
      <stop stop-color="#132843"/>
      <stop offset="1" stop-color="#0E1B2F"/>
    </linearGradient>
    <filter id="shadow" x="56" y="32" width="1088" height="696" filterUnits="userSpaceOnUse" color-interpolation-filters="sRGB">
      <feDropShadow dx="0" dy="24" stdDeviation="28" flood-color="#020814" flood-opacity="0.42"/>
    </filter>
  </defs>
  <rect width="1200" height="760" rx="36" fill="#08111F"/>
  <g filter="url(#shadow)">
    <rect x="64" y="40" width="1072" height="680" rx="30" fill="url(#bg)"/>
  </g>
  <rect x="64" y="40" width="1072" height="58" rx="30" fill="#20395D"/>
  <circle cx="112" cy="69" r="8" fill="#FF8D72"/>
  <circle cx="140" cy="69" r="8" fill="#FFD06A"/>
  <circle cx="168" cy="69" r="8" fill="#5BE1C8"/>
  <text x="208" y="76" fill="#F6F8FD" font-family="Arial, sans-serif" font-size="26" font-weight="700">Accounting System</text>
  <rect x="90" y="126" width="220" height="548" rx="24" fill="#111E33"/>
  <text x="122" y="174" fill="#EEF4FF" font-family="Arial, sans-serif" font-size="20" font-weight="700">Finance Hub</text>
  <rect x="114" y="210" width="172" height="40" rx="14" fill="#1C3557"/>
  <text x="138" y="236" fill="#D8E8FF" font-family="Arial, sans-serif" font-size="16">Dashboard</text>
  <text x="122" y="292" fill="#88A3C8" font-family="Arial, sans-serif" font-size="16">General Ledger</text>
  <text x="122" y="334" fill="#88A3C8" font-family="Arial, sans-serif" font-size="16">Expenses</text>
  <text x="122" y="376" fill="#88A3C8" font-family="Arial, sans-serif" font-size="16">Income Statements</text>
  <text x="122" y="418" fill="#88A3C8" font-family="Arial, sans-serif" font-size="16">Bank Reconciliation</text>
  <text x="122" y="460" fill="#88A3C8" font-family="Arial, sans-serif" font-size="16">Tax Reports</text>
  <rect x="346" y="126" width="346" height="126" rx="24" fill="url(#card)"/>
  <rect x="718" y="126" width="180" height="126" rx="24" fill="#142742"/>
  <rect x="920" y="126" width="180" height="126" rx="24" fill="#142742"/>
  <text x="380" y="170" fill="#8BA8CF" font-family="Arial, sans-serif" font-size="16">Revenue Overview</text>
  <text x="380" y="214" fill="#FFFFFF" font-family="Arial, sans-serif" font-size="34" font-weight="700">$184,230</text>
  <path d="M380 228C422 198 468 208 500 188C534 167 570 173 612 152C630 143 645 150 658 166" stroke="#68E0D0" stroke-width="8" stroke-linecap="round"/>
  <text x="748" y="170" fill="#8BA8CF" font-family="Arial, sans-serif" font-size="16">Invoices</text>
  <text x="748" y="214" fill="#FFFFFF" font-family="Arial, sans-serif" font-size="30" font-weight="700">428</text>
  <rect x="748" y="224" width="86" height="10" rx="5" fill="#22446D"/>
  <rect x="748" y="224" width="62" height="10" rx="5" fill="#7CB6FF"/>
  <text x="950" y="170" fill="#8BA8CF" font-family="Arial, sans-serif" font-size="16">Expenses</text>
  <text x="950" y="214" fill="#FFFFFF" font-family="Arial, sans-serif" font-size="30" font-weight="700">$68,400</text>
  <rect x="950" y="224" width="90" height="10" rx="5" fill="#22446D"/>
  <rect x="950" y="224" width="48" height="10" rx="5" fill="#FF9C7D"/>
  <rect x="346" y="278" width="754" height="196" rx="24" fill="#0F1C30"/>
  <text x="378" y="322" fill="#F6F8FD" font-family="Arial, sans-serif" font-size="22" font-weight="700">Recent Transactions</text>
  <rect x="378" y="346" width="690" height="1" fill="#213A5D"/>
  <text x="378" y="380" fill="#7F9BC3" font-family="Arial, sans-serif" font-size="15">Reference</text>
  <text x="560" y="380" fill="#7F9BC3" font-family="Arial, sans-serif" font-size="15">Account</text>
  <text x="744" y="380" fill="#7F9BC3" font-family="Arial, sans-serif" font-size="15">Amount</text>
  <text x="908" y="380" fill="#7F9BC3" font-family="Arial, sans-serif" font-size="15">Status</text>
  <g fill="#DDE9FF" font-family="Arial, sans-serif" font-size="16">
    <text x="378" y="424">INV-24018</text>
    <text x="560" y="424">Sales Revenue</text>
    <text x="744" y="424">$12,450</text>
    <text x="378" y="464">EXP-1029</text>
    <text x="560" y="464">Office Supplies</text>
    <text x="744" y="464">$1,380</text>
    <text x="378" y="504">PAY-2107</text>
    <text x="560" y="504">Utilities</text>
    <text x="744" y="504">$940</text>
  </g>
  <rect x="898" y="402" width="92" height="28" rx="14" fill="#183A2F"/>
  <rect x="898" y="442" width="92" height="28" rx="14" fill="#3D271E"/>
  <rect x="898" y="482" width="92" height="28" rx="14" fill="#183A2F"/>
  <g fill="#BFF5D7" font-family="Arial, sans-serif" font-size="14" font-weight="700">
    <text x="922" y="421">Posted</text>
    <text x="922" y="501">Posted</text>
  </g>
  <text x="922" y="461" fill="#FFC2A8" font-family="Arial, sans-serif" font-size="14" font-weight="700">Pending</text>
  <rect x="346" y="500" width="362" height="144" rx="24" fill="#101F34"/>
  <rect x="734" y="500" width="366" height="144" rx="24" fill="#101F34"/>
  <text x="378" y="542" fill="#F6F8FD" font-family="Arial, sans-serif" font-size="20" font-weight="700">Cash Flow</text>
  <rect x="378" y="566" width="32" height="46" rx="10" fill="#2B4D78"/>
  <rect x="422" y="546" width="32" height="66" rx="10" fill="#4F82BD"/>
  <rect x="466" y="522" width="32" height="90" rx="10" fill="#7CB6FF"/>
  <rect x="510" y="554" width="32" height="58" rx="10" fill="#68E0D0"/>
  <rect x="554" y="534" width="32" height="78" rx="10" fill="#FF9C7D"/>
  <text x="766" y="542" fill="#F6F8FD" font-family="Arial, sans-serif" font-size="20" font-weight="700">Month-end Checklist</text>
  <rect x="766" y="566" width="14" height="14" rx="4" fill="#68E0D0"/>
  <rect x="766" y="596" width="14" height="14" rx="4" fill="#68E0D0"/>
  <rect x="766" y="626" width="14" height="14" rx="4" fill="#7CB6FF"/>
  <g fill="#DDE9FF" font-family="Arial, sans-serif" font-size="15">
    <text x="792" y="578">Reconcile cash accounts</text>
    <text x="792" y="608">Review unpaid invoices</text>
    <text x="792" y="638">Export tax summary</text>
  </g>
</svg>
