<svg width="1200" height="760" viewBox="0 0 1200 760" fill="none" xmlns="http://www.w3.org/2000/svg">
  <defs>
    <linearGradient id="bg" x1="76" y1="46" x2="1122" y2="712" gradientUnits="userSpaceOnUse">
      <stop stop-color="#1E252E"/>
      <stop offset="1" stop-color="#0D141B"/>
    </linearGradient>
    <filter id="shadow" x="50" y="22" width="1096" height="708" filterUnits="userSpaceOnUse" color-interpolation-filters="sRGB">
      <feDropShadow dx="0" dy="28" stdDeviation="28" flood-color="#030507" flood-opacity="0.42"/>
    </filter>
  </defs>
  <rect width="1200" height="760" rx="36" fill="#091017"/>
  <g filter="url(#shadow)">
    <rect x="64" y="40" width="1072" height="680" rx="30" fill="url(#bg)"/>
  </g>
  <rect x="64" y="40" width="1072" height="58" rx="30" fill="#32495B"/>
  <circle cx="112" cy="69" r="8" fill="#FF8D72"/>
  <circle cx="140" cy="69" r="8" fill="#FFD06A"/>
  <circle cx="168" cy="69" r="8" fill="#68E0D0"/>
  <text x="208" y="76" fill="#F4FCFF" font-family="Arial, sans-serif" font-size="24" font-weight="700">Dental Clinic Management System</text>
  <rect x="92" y="126" width="244" height="548" rx="24" fill="#141D25"/>
  <text x="122" y="172" fill="#EBFBFF" font-family="Arial, sans-serif" font-size="20" font-weight="700">ClinicFlow</text>
  <rect x="116" y="206" width="196" height="40" rx="14" fill="#3E6076"/>
  <g fill="#92B0C4" font-family="Arial, sans-serif" font-size="16">
    <text x="142" y="232" fill="#E5F6FF">Appointments</text>
    <text x="122" y="292">Patient Charts</text>
    <text x="122" y="334">Billing</text>
    <text x="122" y="376">Treatment Plans</text>
    <text x="122" y="418">Inventory</text>
  </g>
  <rect x="362" y="126" width="738" height="126" rx="24" fill="#15202A"/>
  <text x="394" y="170" fill="#8FB0C6" font-family="Arial, sans-serif" font-size="16">Today's Schedule</text>
  <text x="394" y="214" fill="#FFFFFF" font-family="Arial, sans-serif" font-size="32" font-weight="700">18 patients booked</text>
  <rect x="760" y="154" width="140" height="70" rx="18" fill="#20303D"/>
  <rect x="920" y="154" width="148" height="70" rx="18" fill="#20303D"/>
  <text x="788" y="184" fill="#8FB0C6" font-family="Arial, sans-serif" font-size="14">Pending Bills</text>
  <text x="788" y="212" fill="#FFFFFF" font-family="Arial, sans-serif" font-size="24" font-weight="700">6</text>
  <text x="948" y="184" fill="#8FB0C6" font-family="Arial, sans-serif" font-size="14">Rooms Active</text>
  <text x="948" y="212" fill="#FFFFFF" font-family="Arial, sans-serif" font-size="24" font-weight="700">4</text>
  <rect x="362" y="278" width="432" height="366" rx="24" fill="#15202A"/>
  <text x="394" y="320" fill="#F4FCFF" font-family="Arial, sans-serif" font-size="22" font-weight="700">Patient Record</text>
  <rect x="394" y="346" width="368" height="1" fill="#365066"/>
  <circle cx="454" cy="410" r="42" fill="#244053"/>
  <rect x="518" y="384" width="200" height="14" rx="7" fill="#E7F5FF"/>
  <rect x="518" y="412" width="148" height="10" rx="5" fill="#88A8BE"/>
  <rect x="394" y="486" width="338" height="116" rx="18" fill="#1C2A36"/>
  <g fill="#DDEEFF" font-family="Arial, sans-serif" font-size="15">
    <text x="422" y="522">Treatment Plan</text>
    <text x="422" y="554">Cleaning and restorative follow-up</text>
    <text x="422" y="584">Next visit: June 4, 2026</text>
  </g>
  <rect x="824" y="278" width="276" height="172" rx="24" fill="#15202A"/>
  <text x="856" y="320" fill="#F4FCFF" font-family="Arial, sans-serif" font-size="20" font-weight="700">Chair Utilization</text>
  <rect x="856" y="346" width="204" height="14" rx="7" fill="#284353"/>
  <rect x="856" y="346" width="156" height="14" rx="7" fill="#68E0D0"/>
  <rect x="824" y="472" width="276" height="172" rx="24" fill="#15202A"/>
  <text x="856" y="514" fill="#F4FCFF" font-family="Arial, sans-serif" font-size="20" font-weight="700">Procedure Mix</text>
  <circle cx="938" cy="574" r="42" fill="#20303D"/>
  <path d="M938 532A42 42 0 0 1 973 597L938 574V532Z" fill="#7CB6FF"/>
  <path d="M973 597A42 42 0 0 1 912 600L938 574L973 597Z" fill="#68E0D0"/>
  <path d="M912 600A42 42 0 0 1 938 532V574L912 600Z" fill="#FF9C7D"/>
</svg>
