<svg width="1200" height="760" viewBox="0 0 1200 760" fill="none" xmlns="http://www.w3.org/2000/svg">
  <rect width="1200" height="760" rx="36" fill="#091320"/>
  <rect x="42" y="42" width="1116" height="676" rx="28" fill="url(#a)"/>
  <rect x="96" y="126" width="308" height="490" rx="28" fill="#111F35"/>
  <rect x="440" y="126" width="660" height="112" rx="24" fill="#13243D"/>
  <rect x="440" y="272" width="312" height="344" rx="24" fill="#152741"/>
  <rect x="788" y="272" width="312" height="344" rx="24" fill="#0E1C2E"/>
  <path d="M250 262C218 262 192 288 192 320C192 410 250 468 250 468C250 468 308 410 308 320C308 288 282 262 250 262Z" fill="#F6C977"/>
  <text x="96" y="88" fill="#F7F8FC" font-family="Arial, sans-serif" font-size="38" font-weight="700">Dental Clinic Management</text>
  <defs>
    <linearGradient id="a" x1="600" y1="42" x2="600" y2="718" gradientUnits="userSpaceOnUse">
      <stop stop-color="#13243B"/>
      <stop offset="1" stop-color="#0A1626"/>
    </linearGradient>
  </defs>
</svg>
