<svg width="1200" height="760" viewBox="0 0 1200 760" fill="none" xmlns="http://www.w3.org/2000/svg">
  <defs>
    <linearGradient id="bg" x1="68" y1="50" x2="1126" y2="710" gradientUnits="userSpaceOnUse">
      <stop stop-color="#102445"/>
      <stop offset="1" stop-color="#0A1426"/>
    </linearGradient>
    <filter id="shadow" x="48" y="24" width="1100" height="708" filterUnits="userSpaceOnUse" color-interpolation-filters="sRGB">
      <feDropShadow dx="0" dy="28" stdDeviation="28" flood-color="#020813" flood-opacity="0.45"/>
    </filter>
  </defs>
  <rect width="1200" height="760" rx="36" fill="#07101F"/>
  <g filter="url(#shadow)">
    <rect x="64" y="40" width="1072" height="680" rx="30" fill="url(#bg)"/>
  </g>
  <rect x="64" y="40" width="1072" height="58" rx="30" fill="#19375F"/>
  <circle cx="112" cy="69" r="8" fill="#FF8D72"/>
  <circle cx="140" cy="69" r="8" fill="#FFD06A"/>
  <circle cx="168" cy="69" r="8" fill="#68E0D0"/>
  <text x="208" y="76" fill="#F5F9FF" font-family="Arial, sans-serif" font-size="25" font-weight="700">QR Code Attendance System</text>
  <rect x="92" y="126" width="246" height="548" rx="24" fill="#0F1C31"/>
  <text x="122" y="172" fill="#EEF4FF" font-family="Arial, sans-serif" font-size="20" font-weight="700">Attendance Cloud</text>
  <rect x="116" y="208" width="198" height="40" rx="14" fill="#1B3D68"/>
  <g fill="#89A5CC" font-family="Arial, sans-serif" font-size="16">
    <text x="142" y="234" fill="#DDEBFF">Live Check-in</text>
    <text x="122" y="292">Logs</text>
    <text x="122" y="334">QR Batches</text>
    <text x="122" y="376">Departments</text>
    <text x="122" y="418">Exports</text>
  </g>
  <rect x="364" y="126" width="316" height="154" rx="24" fill="#0E2038"/>
  <text x="396" y="170" fill="#88A6D1" font-family="Arial, sans-serif" font-size="16">Today Attendance</text>
  <text x="396" y="216" fill="#FFFFFF" font-family="Arial, sans-serif" font-size="34" font-weight="700">1,248 scans</text>
  <path d="M396 242C438 217 474 228 512 202C548 178 584 184 648 156" stroke="#7CB6FF" stroke-width="8" stroke-linecap="round"/>
  <rect x="704" y="126" width="396" height="154" rx="24" fill="#0E2038"/>
  <text x="736" y="170" fill="#88A6D1" font-family="Arial, sans-serif" font-size="16">Live Status</text>
  <rect x="736" y="192" width="94" height="32" rx="16" fill="#183A2F"/>
  <text x="762" y="213" fill="#C6F6D6" font-family="Arial, sans-serif" font-size="14" font-weight="700">ACTIVE</text>
  <rect x="854" y="192" width="214" height="32" rx="16" fill="#1A385C"/>
  <text x="886" y="213" fill="#D7E9FF" font-family="Arial, sans-serif" font-size="14">Reader: Main Entrance</text>
  <rect x="364" y="306" width="348" height="338" rx="24" fill="#0D1D31"/>
  <text x="396" y="348" fill="#F5F9FF" font-family="Arial, sans-serif" font-size="22" font-weight="700">Scan Console</text>
  <rect x="446" y="384" width="184" height="184" rx="18" fill="#142C4A"/>
  <rect x="480" y="418" width="116" height="116" rx="8" fill="#EDF4FF"/>
  <rect x="492" y="430" width="22" height="22" fill="#111827"/>
  <rect x="562" y="430" width="22" height="22" fill="#111827"/>
  <rect x="492" y="500" width="22" height="22" fill="#111827"/>
  <rect x="530" y="450" width="12" height="12" fill="#111827"/>
  <rect x="548" y="470" width="18" height="18" fill="#111827"/>
  <rect x="530" y="500" width="12" height="12" fill="#111827"/>
  <rect x="396" y="588" width="164" height="20" rx="10" fill="#1B3D68"/>
  <rect x="568" y="588" width="94" height="20" rx="10" fill="#183A2F"/>
  <text x="596" y="602" fill="#C6F6D6" font-family="Arial, sans-serif" font-size="12" font-weight="700">VERIFIED</text>
  <rect x="740" y="306" width="360" height="164" rx="24" fill="#0D1D31"/>
  <text x="772" y="348" fill="#F5F9FF" font-family="Arial, sans-serif" font-size="20" font-weight="700">Recent Entries</text>
  <g fill="#DCE8FF" font-family="Arial, sans-serif" font-size="16">
    <text x="772" y="392">A. Morales</text>
    <text x="772" y="428">J. Villanueva</text>
    <text x="772" y="464">R. Torres</text>
  </g>
  <g fill="#7FA1CC" font-family="Arial, sans-serif" font-size="14">
    <text x="968" y="392">08:02 AM</text>
    <text x="968" y="428">08:04 AM</text>
    <text x="968" y="464">08:05 AM</text>
  </g>
  <rect x="740" y="492" width="360" height="152" rx="24" fill="#0D1D31"/>
  <text x="772" y="534" fill="#F5F9FF" font-family="Arial, sans-serif" font-size="20" font-weight="700">Department Totals</text>
  <rect x="772" y="558" width="262" height="14" rx="7" fill="#163251"/>
  <rect x="772" y="558" width="218" height="14" rx="7" fill="#7CB6FF"/>
  <rect x="772" y="588" width="262" height="14" rx="7" fill="#163251"/>
  <rect x="772" y="588" width="184" height="14" rx="7" fill="#68E0D0"/>
</svg>
