<svg width="1200" height="760" viewBox="0 0 1200 760" fill="none" xmlns="http://www.w3.org/2000/svg">
  <defs>
    <linearGradient id="bg" x1="78" y1="48" x2="1120" y2="708" gradientUnits="userSpaceOnUse">
      <stop stop-color="#11233A"/>
      <stop offset="1" stop-color="#0A1524"/>
    </linearGradient>
    <filter id="shadow" x="50" y="22" width="1096" height="708" filterUnits="userSpaceOnUse" color-interpolation-filters="sRGB">
      <feDropShadow dx="0" dy="28" stdDeviation="28" flood-color="#020712" flood-opacity="0.42"/>
    </filter>
    <linearGradient id="hero" x1="686" y1="214" x2="1010" y2="520" gradientUnits="userSpaceOnUse">
      <stop stop-color="#6CE5D8"/>
      <stop offset="1" stop-color="#7CB6FF"/>
    </linearGradient>
  </defs>
  <rect width="1200" height="760" rx="36" fill="#08111C"/>
  <g filter="url(#shadow)">
    <rect x="64" y="40" width="1072" height="680" rx="30" fill="url(#bg)"/>
  </g>
  <rect x="64" y="40" width="1072" height="58" rx="30" fill="#1B334D"/>
  <circle cx="112" cy="69" r="8" fill="#FF8D72"/>
  <circle cx="140" cy="69" r="8" fill="#FFD06A"/>
  <circle cx="168" cy="69" r="8" fill="#68E0D0"/>
  <text x="208" y="76" fill="#F6FBFF" font-family="Arial, sans-serif" font-size="25" font-weight="700">Website Development Projects</text>
  <rect x="86" y="118" width="1028" height="540" rx="28" fill="#F5F8FD"/>
  <rect x="86" y="118" width="1028" height="68" rx="28" fill="#DCE8F8"/>
  <circle cx="124" cy="152" r="8" fill="#FF8D72"/>
  <circle cx="150" cy="152" r="8" fill="#FFD06A"/>
  <circle cx="176" cy="152" r="8" fill="#68E0D0"/>
  <rect x="214" y="136" width="352" height="32" rx="16" fill="#F9FCFF"/>
  <text x="246" y="157" fill="#8EA7CA" font-family="Arial, sans-serif" font-size="14">https://allanmurillo.dev/projects</text>
  <text x="136" y="250" fill="#12233B" font-family="Arial, sans-serif" font-size="42" font-weight="700">Business websites that look premium</text>
  <text x="136" y="296" fill="#6B84A8" font-family="Arial, sans-serif" font-size="19">Landing pages, service sites, and conversion-focused layouts tailored to real businesses.</text>
  <rect x="136" y="342" width="148" height="48" rx="24" fill="#13223A"/>
  <text x="178" y="373" fill="#F7FAFF" font-family="Arial, sans-serif" font-size="16" font-weight="700">View Work</text>
  <rect x="306" y="342" width="158" height="48" rx="24" fill="#E6EEF9"/>
  <text x="346" y="373" fill="#3A587F" font-family="Arial, sans-serif" font-size="16" font-weight="700">Case Study</text>
  <rect x="672" y="222" width="360" height="282" rx="28" fill="url(#hero)"/>
  <rect x="712" y="254" width="280" height="172" rx="22" fill="#F8FBFF"/>
  <rect x="734" y="278" width="78" height="10" rx="5" fill="#D6E4F6"/>
  <rect x="734" y="304" width="164" height="14" rx="7" fill="#12233B"/>
  <rect x="734" y="330" width="128" height="10" rx="5" fill="#8EA7CA"/>
  <rect x="734" y="356" width="142" height="10" rx="5" fill="#8EA7CA"/>
  <rect x="734" y="392" width="88" height="28" rx="14" fill="#13223A"/>
  <text x="758" y="411" fill="#F7FAFF" font-family="Arial, sans-serif" font-size="13" font-weight="700">Launch</text>
  <rect x="136" y="456" width="896" height="148" rx="24" fill="#ECF3FB"/>
  <rect x="170" y="490" width="210" height="82" rx="20" fill="#FFFFFF"/>
  <rect x="402" y="490" width="210" height="82" rx="20" fill="#FFFFFF"/>
  <rect x="634" y="490" width="210" height="82" rx="20" fill="#FFFFFF"/>
  <rect x="866" y="490" width="132" height="82" rx="20" fill="#13223A"/>
  <g fill="#56759D" font-family="Arial, sans-serif" font-size="14">
    <text x="194" y="520">Responsive layouts</text>
    <text x="426" y="520">Service storytelling</text>
    <text x="658" y="520">Contact funnels</text>
  </g>
</svg>
