<svg width="720" height="840" viewBox="0 0 720 840" fill="none" xmlns="http://www.w3.org/2000/svg">
  <rect width="720" height="840" rx="48" fill="#0C1727"/>
  <rect x="32" y="32" width="656" height="776" rx="36" fill="url(#paint0_linear)"/>
  <circle cx="360" cy="344" r="184" fill="url(#paint1_radial)" fill-opacity="0.72"/>
  <circle cx="360" cy="344" r="148" stroke="#FF8B6B" stroke-width="18" stroke-opacity="0.72"/>
  <path d="M360 224C300.353 224 252 272.353 252 332V352C252 411.647 300.353 460 360 460C419.647 460 468 411.647 468 352V332C468 272.353 419.647 224 360 224Z" fill="#14233A"/>
  <path d="M248 608C248 536.203 306.203 478 378 478H342C413.797 478 472 536.203 472 608V648H248V608Z" fill="#14233A"/>
  <circle cx="320" cy="328" r="12" fill="#FF8B6B"/>
  <circle cx="400" cy="328" r="12" fill="#FF8B6B"/>
  <path d="M320 390C343.667 406.667 377.467 406.667 400 390" stroke="#F6F7FB" stroke-width="12" stroke-linecap="round"/>
  <path d="M124 154L210 114V194L124 154Z" fill="#FF8B6B" fill-opacity="0.22"/>
  <path d="M596 544L510 504V584L596 544Z" fill="#7FE6D4" fill-opacity="0.2"/>
  <circle cx="126" cy="642" r="8" fill="#FF8B6B"/>
  <circle cx="580" cy="186" r="10" fill="#7FE6D4"/>
  <text x="360" y="742" fill="#F6F7FB" font-family="Space Grotesk, sans-serif" font-size="72" font-weight="700" text-anchor="middle">AM</text>
  <defs>
    <linearGradient id="paint0_linear" x1="360" y1="32" x2="360" y2="808" gradientUnits="userSpaceOnUse">
      <stop stop-color="#0F1C2E"/>
      <stop offset="1" stop-color="#09111D"/>
    </linearGradient>
    <radialGradient id="paint1_radial" cx="0" cy="0" r="1" gradientUnits="userSpaceOnUse" gradientTransform="translate(360 344) rotate(90) scale(184)">
      <stop stop-color="#FF8B6B"/>
      <stop offset="1" stop-color="#FF8B6B" stop-opacity="0"/>
    </radialGradient>
  </defs>
</svg>
