<svg width="1200" height="760" viewBox="0 0 1200 760" fill="none" xmlns="http://www.w3.org/2000/svg">
  <rect width="1200" height="760" rx="36" fill="#09121F"/>
  <rect x="42" y="42" width="1116" height="676" rx="28" fill="url(#a)"/>
  <path d="M192 142H430V620L400 602L370 620L340 602L310 620L280 602L250 620L220 602L192 620V142Z" fill="#F4F5F8"/>
  <rect x="514" y="142" width="548" height="118" rx="22" fill="#13243B"/>
  <rect x="514" y="292" width="548" height="328" rx="22" fill="#0F1C30"/>
  <rect x="236" y="206" width="152" height="14" rx="7" fill="#FF8B6B"/>
  <rect x="236" y="254" width="134" height="10" rx="5" fill="#1A2941" fill-opacity=".58"/>
  <rect x="236" y="288" width="120" height="10" rx="5" fill="#1A2941" fill-opacity=".58"/>
  <rect x="236" y="322" width="140" height="10" rx="5" fill="#1A2941" fill-opacity=".58"/>
  <text x="92" y="88" fill="#F7F8FC" font-family="Arial, sans-serif" font-size="40" font-weight="700">Receipt Recording</text>
  <defs>
    <linearGradient id="a" x1="600" y1="42" x2="600" y2="718" gradientUnits="userSpaceOnUse">
      <stop stop-color="#12223A"/>
      <stop offset="1" stop-color="#0A1627"/>
    </linearGradient>
  </defs>
</svg>
